<svg version="1.1" id="Layer_1" xmlns="http://www.w3.org/2000/svg" xmlns:xlink="http://www.w3.org/1999/xlink" viewBox="0 0 512 512" xml:space="preserve" width="24px" height="24px" fill="#000000"><g id="SVGRepo_bgCarrier" stroke-width="0"></g><g id="SVGRepo_tracerCarrier" stroke-linecap="round" stroke-linejoin="round"></g><g id="SVGRepo_iconCarrier"> <circle style="fill:#263A7A;" cx="256" cy="256" r="256"></circle> <path style="fill:#121149;" d="M512,256c0-3.036-0.072-6.053-0.178-9.063L370.045,105.158L245.546,300.849L102.84,388.07 l122.044,122.044c10.2,1.236,20.583,1.886,31.118,1.886C397.384,512,512,397.384,512,256z"></path> <path style="fill:#71E2EF;" d="M382.74,382.336H162.868c-8.551,0-15.482-6.932-15.482-15.482V202.033 c0-8.551,6.932-15.482,15.482-15.482h219.874c8.551,0,15.482,6.932,15.482,15.482v164.821 C398.222,375.405,391.29,382.336,382.74,382.336z"></path> <path style="fill:#38C6D9;" d="M382.74,186.552h-98.007v195.786h98.007c8.551,0,15.482-6.932,15.482-15.482V202.035 C398.222,193.484,391.29,186.552,382.74,186.552z"></path> <path style="fill:#71E2EF;" d="M149.99,393.032h-32.358c-13.553,0-24.542-10.988-24.542-24.542V200.399 c0-13.553,10.988-24.542,24.542-24.542h32.358c13.553,0,24.542,10.988,24.542,24.542V368.49 C174.532,382.043,163.543,393.032,149.99,393.032z"></path> <path style="fill:#38C6D9;" d="M149.99,175.857h-16.962v217.174h16.962c13.553,0,24.542-10.988,24.542-24.542V200.399 C174.532,186.846,163.543,175.857,149.99,175.857z"></path> <path style="fill:#D0D1D3;" d="M316.316,269.36h21.261c2.222,0,4.022-1.801,4.022-4.022v-20.399c0-2.222-1.801-4.022-4.022-4.022 h-21.261c-2.222,0-4.024,1.801-4.024,4.022v20.399C312.294,267.559,314.096,269.36,316.316,269.36z"></path> <g> <path style="fill:#FFFFFF;" d="M274.08,269.36h21.261c2.222,0,4.022-1.801,4.022-4.022v-20.399c0-2.222-1.801-4.022-4.022-4.022 H274.08c-2.222,0-4.024,1.801-4.024,4.022v20.399C270.058,267.559,271.86,269.36,274.08,269.36z"></path> <path style="fill:#FFFFFF;" d="M231.845,269.36h21.261c2.222,0,4.022-1.801,4.022-4.022v-20.399c0-2.222-1.801-4.022-4.022-4.022 h-21.261c-2.222,0-4.024,1.801-4.024,4.022v20.399C227.823,267.559,229.624,269.36,231.845,269.36z"></path> </g> <path style="fill:#D0D1D3;" d="M316.316,312.889h21.261c2.222,0,4.022-1.801,4.022-4.022v-20.399c0-2.222-1.801-4.022-4.022-4.022 h-21.261c-2.222,0-4.024,1.801-4.024,4.022v20.399C312.294,311.087,314.096,312.889,316.316,312.889z"></path> <g> <path style="fill:#FFFFFF;" d="M274.08,312.889h21.261c2.222,0,4.022-1.801,4.022-4.022v-20.399c0-2.222-1.801-4.022-4.022-4.022 H274.08c-2.222,0-4.024,1.801-4.024,4.022v20.399C270.058,311.087,271.86,312.889,274.08,312.889z"></path> <path style="fill:#FFFFFF;" d="M231.845,312.889h21.261c2.222,0,4.022-1.801,4.022-4.022v-20.399c0-2.222-1.801-4.022-4.022-4.022 h-21.261c-2.222,0-4.024,1.801-4.024,4.022v20.399C227.823,311.087,229.624,312.889,231.845,312.889z"></path> </g> <path style="fill:#D0D1D3;" d="M316.316,357.279h21.261c2.222,0,4.022-1.801,4.022-4.022v-20.399c0-2.222-1.801-4.022-4.022-4.022 h-21.261c-2.222,0-4.024,1.801-4.024,4.022v20.399C312.294,355.478,314.096,357.279,316.316,357.279z"></path> <path style="fill:#FFFFFF;" d="M274.08,357.279h21.261c2.222,0,4.022-1.801,4.022-4.022v-20.399c0-2.222-1.801-4.022-4.022-4.022 H274.08c-2.222,0-4.024,1.801-4.024,4.022v20.399C270.058,355.478,271.86,357.279,274.08,357.279z"></path> <g> <path style="fill:#D0D1D3;" d="M295.341,240.916h-10.609v28.444h10.609c2.222,0,4.022-1.801,4.022-4.022v-20.399 C299.365,242.717,297.563,240.916,295.341,240.916z"></path> <path style="fill:#D0D1D3;" d="M295.341,284.444h-10.609v28.444h10.609c2.222,0,4.022-1.801,4.022-4.022v-20.399 C299.365,286.246,297.563,284.444,295.341,284.444z"></path> <path style="fill:#D0D1D3;" d="M295.341,328.835h-10.609v28.444h10.609c2.222,0,4.022-1.801,4.022-4.022v-20.399 C299.365,330.636,297.563,328.835,295.341,328.835z"></path> </g> <g> <path style="fill:#FFFFFF;" d="M231.845,357.279h21.261c2.222,0,4.022-1.801,4.022-4.022v-20.399c0-2.222-1.801-4.022-4.022-4.022 h-21.261c-2.222,0-4.024,1.801-4.024,4.022v20.399C227.823,355.478,229.624,357.279,231.845,357.279z"></path> <rect x="199.387" y="105.158" style="fill:#FFFFFF;" width="170.667" height="113.778"></rect> </g> <rect x="284.737" y="105.158" style="fill:#D0D1D3;" width="85.316" height="113.778"></rect> </g></svg>